<?xml version="1.0" encoding="utf-8"?>
<!-- Generator: Adobe Illustrator 24.3.0, SVG Export Plug-In . SVG Version: 6.00 Build 0)  -->
<svg version="1.1" xmlns="http://www.w3.org/2000/svg" xmlns:xlink="http://www.w3.org/1999/xlink" x="0px" y="0px"
	 viewBox="0 0 270.6 181.2" style="enable-background:new 0 0 270.6 181.2;" xml:space="preserve">
<style type="text/css">
	.st0{fill:#8B5E3C;}
	.st1{fill:#603913;}
	.st2{fill:#3C2415;}
	.st3{opacity:0.51;fill:#7BC143;}
	.st4{fill:#7BC143;}
	.st5{fill:#C49A6C;}
	.st6{fill:#754C29;}
</style>
<g id="Layer_2">
</g>
<g id="Layer_1">
	<path class="st0" d="M207.9,64.5c-21.2,13.1-42.5,26.2-63.7,39.3c5.1-17.6,10.2-35.3,15.2-52.9c0.1-1.8,0.2-3.5,0.3-5.3
		c15.8-8.1,31.6-16.1,47.4-24.2c1.9,1.5,3.9,2.9,5.8,4.4"/>
	<path class="st1" d="M149.2,45.2c3.5,0.2,6.9,0.4,10.4,0.5c14.6-7.5,29.2-15,43.8-22.4c-18.1-2-36.1-4-54.2-6"/>
	<ellipse class="st2" cx="195.1" cy="71.8" rx="21.3" ry="28.7"/>
	<ellipse class="st1" cx="197.3" cy="72.1" rx="19.1" ry="28.4"/>
	<ellipse class="st2" cx="199.6" cy="72.1" rx="4.9" ry="7.3"/>
	<path class="st3" d="M169.3,145.5c11.2-11.6,19-38.3,39.8-49.1c11.4-5.9,23-5,27.2-4.5c7.6,0.9,13.4,4.4,17.3,5.5
		c3.9,1.1,2.3-0.2,2.9,0.6c2.5,3.1-7.5,16.1-13,22.6c-13,15.1-23.6,27.5-38.4,28.1c-6.7,0.3-25.5-1.4-30.6-0.5
		c-3.2,0.6-6.3,1.4-6.3,1.4c-1,0.5-2.2,1.1-2.5,0.7C165.1,149.8,168.5,146.3,169.3,145.5z"/>
	<path class="st4" d="M167.6,136.3c11.8-9.7,20.9-32.1,42.4-40.9c11.8-4.8,23.5-4,27.7-3.5c7.6,0.9,13.4,3.9,17.2,4.9
		c3.9,1,2.3-0.1,2.9,0.5c2.3,2.6-8.3,13.5-14.2,18.9c-13.8,12.6-25.1,22.9-40.1,23.2c-6.8,0.1-25.7-1.5-30.9-0.8
		c-3.3,0.5-6.5,1.1-6.5,1.1c-1.1,0.4-2.3,0.9-2.5,0.6C163.2,139.8,166.8,137,167.6,136.3z"/>
	<path class="st5" d="M149.3,45.2c3.5,0.2,6.9,0.3,10.4,0.5c-0.1,1.7-0.2,3.4-0.3,5.2l-15.2,52.9c-20-4.9-39.9-9.8-59.9-14.7
		c-23.8,17.2-47.5,34.5-71.3,51.7c-1.9-0.9-3.7-1.8-5.6-2.7c25-17.1,49.9-34.2,74.9-51.4"/>
	<path class="st5" d="M144.1,103.8l-75.2,64c3.3,1.6,6.6,3.7,9.9,5.3c21.8-23.1,43.4-44.8,65.1-67.9
		C144.2,105,144.1,104.8,144.1,103.8z"/>
	<path class="st6" d="M81.1,87.7c0-16.3,0-32.6,0-48.9c19.8-8.7,42.8-14.9,62.6-23.6c1.8,0.4,3.7,0.9,5.5,1.3c0,4.3,0,6,0,10.2v9.6
		c0,2.4,0,6.5,0,8.9"/>
	<polyline class="st6" points="69,163 69,167.9 78.9,173.1 78.9,167.9 78.9,167.9 144.1,103.8 135.9,101.8 	"/>
	<polyline class="st5" points="84.3,89.1 84.3,91 13,144.2 7.4,140.9 7.4,138.2 	"/>
	<path class="st5" d="M13,140.9"/>
</g>
</svg>
